<svg width="258" height="231" viewBox="0 0 258 231" fill="none" xmlns="http://www.w3.org/2000/svg">
<g clip-path="url(#clip0)">
<path d="M254.073 87.4014H253.983L202.173 109.523L131.29 139.79C131.013 139.907 130.716 139.968 130.415 139.969C130.115 139.971 129.817 139.913 129.539 139.799L56.409 109.459L3.32901 87.4364L3.24799 87.4004H3.15799C2.31972 87.4015 1.51619 87.7353 0.924012 88.3286C0.331829 88.922 -0.00053025 89.7261 6.35017e-07 90.5644V227.754C0.000794922 228.592 0.333862 229.395 0.926118 229.987C1.51837 230.579 2.32142 230.913 3.159 230.913H254.073C254.911 230.913 255.714 230.579 256.306 229.987C256.898 229.395 257.231 228.592 257.232 227.754V90.5644C257.232 89.7262 256.899 88.9223 256.307 88.3292C255.715 87.7362 254.911 87.4025 254.073 87.4014Z" fill="#009688"/>
<path d="M254.976 88.3044C254.884 88.3046 254.794 88.2763 254.718 88.2234L129.912 1.30542C129.533 1.04149 129.082 0.899998 128.62 0.899998C128.157 0.899998 127.706 1.04149 127.327 1.30542L3.42003 88.2224C3.32203 88.2911 3.20076 88.3181 3.0829 88.2974C2.96503 88.2766 2.86021 88.2099 2.79152 88.1119C2.72283 88.0139 2.69587 87.8927 2.7166 87.7748C2.73732 87.6569 2.80402 87.5521 2.90202 87.4834L126.809 0.570424C127.34 0.200137 127.971 0.00107694 128.618 4.35728e-06C129.265 -0.00106822 129.896 0.195901 130.428 0.564427L255.234 87.4824C255.313 87.5372 255.373 87.6158 255.404 87.7069C255.435 87.7979 255.437 87.8966 255.408 87.9885C255.379 88.0804 255.322 88.1606 255.244 88.2174C255.166 88.2743 255.072 88.3048 254.976 88.3044Z" fill="#38298A"/>
<path d="M10.5 91.3854L128.741 3.75439L247.879 97.6214L134.833 164.635L73.459 150.645L10.5 91.3854Z" fill="#009688"/>
<path d="M78.64 206.028H20.226C19.5022 206.028 18.8081 205.741 18.2963 205.229C17.7845 204.717 17.497 204.023 17.497 203.299C17.497 202.576 17.7845 201.881 18.2963 201.37C18.8081 200.858 19.5022 200.57 20.226 200.57H78.64C79.3638 200.57 80.0579 200.858 80.5697 201.37C81.0815 201.881 81.369 202.576 81.369 203.299C81.369 204.023 81.0815 204.717 80.5697 205.229C80.0579 205.741 79.3638 206.028 78.64 206.028Z" fill="white"/>
<path d="M41.183 194.295H20.226C19.5022 194.295 18.8081 194.008 18.2963 193.496C17.7845 192.984 17.497 192.29 17.497 191.566C17.497 190.843 17.7845 190.149 18.2963 189.637C18.8081 189.125 19.5022 188.837 20.226 188.837H41.184C41.9078 188.837 42.6019 189.125 43.1137 189.637C43.6255 190.149 43.913 190.843 43.913 191.566C43.913 192.29 43.6255 192.984 43.1137 193.496C42.6019 194.008 41.9078 194.295 41.184 194.295H41.183Z" fill="white"/>
<path d="M130.404 140.195C129.96 140.196 129.52 140.11 129.109 139.941L56.186 109.683V14.9754C56.1871 14.1379 56.5202 13.335 57.1124 12.7428C57.7046 12.1506 58.5075 11.8175 59.345 11.8164H199.245C200.082 11.8175 200.885 12.1506 201.478 12.7428C202.07 13.335 202.403 14.1379 202.404 14.9754V109.753L202.267 109.812L131.741 139.931C131.319 140.109 130.865 140.201 130.407 140.2L130.404 140.195Z" fill="#B8B8B8"/>
<path d="M130.403 140.42C129.93 140.421 129.46 140.329 129.022 140.15L55.959 109.834V14.9714C55.9598 14.0739 56.3167 13.2134 56.9514 12.5787C57.586 11.9441 58.4465 11.5872 59.344 11.5864H199.244C200.142 11.5872 201.002 11.9441 201.637 12.5787C202.271 13.2134 202.628 14.0739 202.629 14.9714V109.898L131.829 140.133C131.378 140.324 130.893 140.421 130.403 140.42ZM56.862 109.231L129.362 139.316C130.038 139.591 130.796 139.586 131.469 139.303L201.719 109.303V14.9714C201.718 14.3134 201.456 13.6825 200.991 13.2173C200.526 12.752 199.895 12.4902 199.237 12.4894H59.337C58.679 12.4902 58.0481 12.752 57.5828 13.2173C57.1175 13.6825 56.8558 14.3134 56.855 14.9714L56.862 109.231Z" fill="#3F3D56"/>
<path d="M254.073 87.4014H253.983L202.173 109.523L131.29 139.79C131.013 139.907 130.716 139.968 130.415 139.969C130.115 139.971 129.817 139.913 129.539 139.799L56.409 109.459L3.32901 87.4364L3.24799 87.4004H3.15799C2.31972 87.4015 1.51619 87.7353 0.924012 88.3286C0.331829 88.922 -0.00053025 89.7261 6.35017e-07 90.5644V227.754C0.000794922 228.592 0.333862 229.395 0.926118 229.987C1.51837 230.579 2.32142 230.913 3.159 230.913H254.073C254.911 230.913 255.714 230.579 256.306 229.987C256.898 229.395 257.231 228.592 257.232 227.754V90.5644C257.232 89.7262 256.899 88.9223 256.307 88.3292C255.715 87.7362 254.911 87.4025 254.073 87.4014ZM256.329 227.75C256.329 228.349 256.091 228.922 255.668 229.345C255.245 229.768 254.671 230.006 254.073 230.006H3.16C2.56176 230.006 1.98809 229.768 1.56506 229.345C1.14204 228.922 0.904257 228.349 0.903992 227.75V90.5644C0.90482 89.9809 1.13122 89.4203 1.53583 88.9998C1.94044 88.5794 2.49196 88.3316 3.07501 88.3084L56.412 110.439L129.195 140.639C129.983 140.96 130.866 140.955 131.65 140.625L202.173 110.502L254.161 88.3024C254.744 88.3274 255.295 88.5766 255.699 88.9981C256.103 89.4196 256.328 89.9807 256.328 90.5644L256.329 227.75Z" fill="#3F3D56"/>
<path d="M119.051 47.2154H69.41C68.4525 47.2154 67.5344 46.835 66.8574 46.158C66.1804 45.481 65.8 44.5628 65.8 43.6053C65.8 42.6479 66.1804 41.7297 66.8574 41.0527C67.5344 40.3757 68.4525 39.9954 69.41 39.9954H119.051C120.008 39.9954 120.927 40.3757 121.604 41.0527C122.281 41.7297 122.661 42.6479 122.661 43.6053C122.661 44.5628 122.281 45.481 121.604 46.158C120.927 46.835 120.008 47.2154 119.051 47.2154Z" fill="white"/>
<path d="M93.328 31.8723H69.41C68.4525 31.8723 67.5344 31.492 66.8574 30.815C66.1804 30.138 65.8 29.2198 65.8 28.2623C65.8 27.3049 66.1804 26.3867 66.8574 25.7097C67.5344 25.0327 68.4525 24.6523 69.41 24.6523H93.328C94.2854 24.6523 95.2037 25.0327 95.8807 25.7097C96.5577 26.3867 96.938 27.3049 96.938 28.2623C96.938 29.2198 96.5577 30.138 95.8807 30.815C95.2037 31.492 94.2854 31.8723 93.328 31.8723Z" fill="white"/>
<path d="M166.421 83.3184H90.606C89.6486 83.3184 88.7304 82.9381 88.0533 82.261C87.3763 81.584 86.996 80.6658 86.996 79.7084C86.996 78.7509 87.3763 77.8327 88.0533 77.1557C88.7304 76.4787 89.6486 76.0984 90.606 76.0984H166.421C167.378 76.0984 168.297 76.4787 168.974 77.1557C169.651 77.8327 170.031 78.7509 170.031 79.7084C170.031 80.6658 169.651 81.584 168.974 82.261C168.297 82.9381 167.378 83.3184 166.421 83.3184Z" fill="#4E4E4E"/>
<path d="M166.421 100.016H90.606C89.6485 100.016 88.7301 99.636 88.053 98.9589C87.3759 98.2818 86.9955 97.3635 86.9955 96.4059C86.9955 95.4484 87.3759 94.53 88.053 93.8529C88.7301 93.1758 89.6485 92.7954 90.606 92.7954H166.421C167.379 92.7954 168.297 93.1758 168.974 93.8529C169.651 94.53 170.031 95.4484 170.031 96.4059C170.031 97.3635 169.651 98.2818 168.974 98.9589C168.297 99.636 167.379 100.016 166.421 100.016Z" fill="#4E4E4E"/>
</g>
<defs>
<clipPath id="clip0">
<rect width="257.23" height="230.909" fill="white"/>
</clipPath>
</defs>
</svg>
